<svg id="visual" viewBox="0 0 900 600" width="900" height="600" xmlns="http://www.w3.org/2000/svg" xmlns:xlink="http://www.w3.org/1999/xlink" version="1.1"><g><g transform="translate(636 432)"><path d="M44.4 -45.3C59.4 -29.4 74.7 -14.7 77.7 3C80.7 20.7 71.4 41.4 56.4 55.6C41.4 69.9 20.7 77.8 -2.5 80.3C-25.6 82.8 -51.3 79.8 -63.8 65.6C-76.3 51.3 -75.7 25.6 -73 2.7C-70.3 -20.2 -65.5 -40.4 -53 -56.4C-40.4 -72.3 -20.2 -83.9 -2.8 -81.1C14.7 -78.3 29.4 -61.2 44.4 -45.3Z" fill="none" stroke="#2AD8A4" stroke-width="20"></path></g><g transform="translate(154 464)"><path d="M37.7 -36.9C47.7 -27.8 53.6 -13.9 55.5 1.9C57.4 17.6 55.1 35.2 45.2 45.9C35.2 56.6 17.6 60.3 0.3 60C-17 59.7 -34.1 55.4 -51 44.7C-67.9 34.1 -84.7 17 -84.5 0.3C-84.2 -16.5 -66.8 -33 -49.9 -42.1C-33 -51.3 -16.5 -53 -1.3 -51.7C13.9 -50.4 27.8 -46.1 37.7 -36.9Z" fill="none" stroke="#2AD8A4" stroke-width="20"></path></g><g transform="translate(762 98)"><path d="M28.3 -28.5C35.4 -21.3 38.7 -10.7 38.6 -0.1C38.5 10.5 35.1 21.1 28.1 29.3C21.1 37.6 10.5 43.7 -0.9 44.6C-12.4 45.6 -24.9 41.4 -30.7 33.1C-36.5 24.9 -35.7 12.4 -35.1 0.6C-34.5 -11.2 -34.1 -22.4 -28.2 -29.6C-22.4 -36.7 -11.2 -39.7 -0.3 -39.5C10.7 -39.2 21.3 -35.6 28.3 -28.5Z" fill="none" stroke="#2AD8A4" stroke-width="20"></path></g><g transform="translate(161 134)"><path d="M43.3 -38.8C56.1 -30.5 66.5 -15.2 68.9 2.4C71.4 20.1 65.8 40.2 53 50.4C40.2 60.7 20.1 61.1 -1.3 62.4C-22.6 63.6 -45.3 65.8 -56 55.5C-66.8 45.3 -65.8 22.6 -64.4 1.4C-63 -19.9 -61.3 -39.7 -50.5 -48.1C-39.7 -56.5 -19.9 -53.4 -2.3 -51.1C15.2 -48.8 30.5 -47.2 43.3 -38.8Z" fill="none" stroke="#2AD8A4" stroke-width="20"></path></g></g></svg>