<svg id="visual" viewBox="0 0 600 900" width="600" height="900" xmlns="http://www.w3.org/2000/svg" xmlns:xlink="http://www.w3.org/1999/xlink" version="1.1"><g><g transform="translate(267 361)"><path d="M62.8 -53.7C76 -33.4 77.9 -7.6 71.6 14.9C65.3 37.4 50.9 56.5 31.7 65.6C12.6 74.8 -11.3 73.9 -28.1 63.7C-44.9 53.6 -54.8 34.1 -61.6 11.9C-68.4 -10.4 -72.3 -35.6 -61.6 -55.4C-50.8 -75.2 -25.4 -89.6 -0.3 -89.3C24.7 -89 49.5 -74.1 62.8 -53.7Z" stroke="#72e5c8" fill="none" stroke-width="20"></path></g><g transform="translate(397 636)"><path d="M35.2 -32.4C40.7 -21.3 36.7 -6.9 32.9 6.7C29.2 20.4 25.7 33.3 17.6 37.7C9.4 42.1 -3.4 37.9 -15.2 32C-27 26.2 -37.7 18.6 -39.8 9.1C-41.9 -0.3 -35.4 -11.7 -27.3 -23.4C-19.3 -35.1 -9.6 -47.2 2.6 -49.3C14.9 -51.4 29.8 -43.5 35.2 -32.4Z" stroke="#72e5c8" fill="none" stroke-width="20"></path></g><g transform="translate(485 295)"><path d="M50.1 -37.4C62.8 -24 69.6 -3.3 64.1 12.1C58.5 27.4 40.7 37.5 24.5 41.7C8.4 45.9 -6.1 44.3 -22.4 39.2C-38.8 34.2 -57 25.7 -61.6 12.2C-66.2 -1.3 -57.2 -19.8 -44.6 -33.3C-32.1 -46.7 -16 -55 1.3 -56C18.7 -57.1 37.4 -50.9 50.1 -37.4Z" stroke="#72e5c8" fill="none" stroke-width="20"></path></g><g transform="translate(176 770)"><path d="M36 -31C41.4 -21.9 37 -7.2 32.8 6.1C28.6 19.3 24.7 31.2 15.1 38.7C5.5 46.2 -9.8 49.2 -21 43.8C-32.2 38.3 -39.2 24.4 -40.4 11.5C-41.5 -1.4 -36.7 -13.4 -29 -23C-21.3 -32.6 -10.6 -39.8 2.3 -41.6C15.3 -43.5 30.6 -40 36 -31Z" stroke="#72e5c8" fill="none" stroke-width="20"></path></g><g transform="translate(118 130)"><path d="M45.6 -33.6C60.4 -17.8 74.6 1.3 72.1 18.2C69.6 35.1 50.4 50 31.8 54.7C13.1 59.4 -5.1 53.8 -27 46.8C-49 39.8 -74.7 31.4 -81.6 14.7C-88.5 -1.9 -76.5 -26.7 -59.8 -43C-43.1 -59.3 -21.5 -67 -3.1 -64.6C15.4 -62.1 30.8 -49.5 45.6 -33.6Z" stroke="#72e5c8" fill="none" stroke-width="20"></path></g></g></svg>