<svg id="visual" viewBox="0 0 900 450" width="900" height="450" xmlns="http://www.w3.org/2000/svg" xmlns:xlink="http://www.w3.org/1999/xlink" version="1.1"><rect x="0" y="0" width="900" height="450" fill="#FFFFFF"></rect><defs><linearGradient id="grad1_0" x1="50%" y1="0%" x2="100%" y2="100%"><stop offset="10%" stop-color="#2ad8a4" stop-opacity="1"></stop><stop offset="90%" stop-color="#2ad8a4" stop-opacity="1"></stop></linearGradient></defs><defs><linearGradient id="grad1_1" x1="50%" y1="0%" x2="100%" y2="100%"><stop offset="10%" stop-color="#2ad8a4" stop-opacity="1"></stop><stop offset="90%" stop-color="#a9edd1" stop-opacity="1"></stop></linearGradient></defs><defs><linearGradient id="grad1_2" x1="50%" y1="0%" x2="100%" y2="100%"><stop offset="10%" stop-color="#ffffff" stop-opacity="1"></stop><stop offset="90%" stop-color="#a9edd1" stop-opacity="1"></stop></linearGradient></defs><defs><linearGradient id="grad2_0" x1="0%" y1="0%" x2="50%" y2="100%"><stop offset="10%" stop-color="#2ad8a4" stop-opacity="1"></stop><stop offset="90%" stop-color="#2ad8a4" stop-opacity="1"></stop></linearGradient></defs><defs><linearGradient id="grad2_1" x1="0%" y1="0%" x2="50%" y2="100%"><stop offset="10%" stop-color="#a9edd1" stop-opacity="1"></stop><stop offset="90%" stop-color="#2ad8a4" stop-opacity="1"></stop></linearGradient></defs><defs><linearGradient id="grad2_2" x1="0%" y1="0%" x2="50%" y2="100%"><stop offset="10%" stop-color="#a9edd1" stop-opacity="1"></stop><stop offset="90%" stop-color="#ffffff" stop-opacity="1"></stop></linearGradient></defs><g transform="translate(900, 0)"><path d="M0 247.5C-34.3 246 -68.6 244.5 -94.7 228.7C-120.8 212.8 -138.8 182.6 -157.7 157.7C-176.6 132.7 -196.4 113 -211.6 87.6C-226.7 62.2 -237.1 31.1 -247.5 0L0 0Z" fill="#d5f6e8"></path><path d="M0 165C-22.9 164 -45.7 163 -63.1 152.4C-80.6 141.9 -92.5 121.8 -105.1 105.1C-117.7 88.5 -131 75.4 -141 58.4C-151.1 41.5 -158.1 20.7 -165 0L0 0Z" fill="#77e3ba"></path><path d="M0 82.5C-11.4 82 -22.9 81.5 -31.6 76.2C-40.3 70.9 -46.3 60.9 -52.6 52.6C-58.9 44.2 -65.5 37.7 -70.5 29.2C-75.6 20.7 -79 10.4 -82.5 0L0 0Z" fill="#2ad8a4"></path></g><g transform="translate(0, 450)"><path d="M0 -247.5C32 -240.6 64.1 -233.8 91.1 -219.9C118.1 -206 140 -185 164 -164C188.1 -143.1 214.4 -122.1 228.7 -94.7C242.9 -67.4 245.2 -33.7 247.5 0L0 0Z" fill="#d5f6e8"></path><path d="M0 -165C21.4 -160.4 42.7 -155.9 60.7 -146.6C78.7 -137.3 93.3 -123.4 109.4 -109.4C125.4 -95.4 142.9 -81.4 152.4 -63.1C162 -44.9 163.5 -22.5 165 0L0 0Z" fill="#77e3ba"></path><path d="M0 -82.5C10.7 -80.2 21.4 -77.9 30.4 -73.3C39.4 -68.7 46.7 -61.7 54.7 -54.7C62.7 -47.7 71.5 -40.7 76.2 -31.6C81 -22.5 81.7 -11.2 82.5 0L0 0Z" fill="#2ad8a4"></path></g></svg>