<svg id="visual" viewBox="0 0 900 450" width="900" height="450" xmlns="http://www.w3.org/2000/svg" xmlns:xlink="http://www.w3.org/1999/xlink" version="1.1"><path d="M0 365L13.7 366C27.3 367 54.7 369 82 374.7C109.3 380.3 136.7 389.7 163.8 394.2C191 398.7 218 398.3 245.2 398.5C272.3 398.7 299.7 399.3 327 399C354.3 398.7 381.7 397.3 409 394C436.3 390.7 463.7 385.3 491 381.5C518.3 377.7 545.7 375.3 573 379C600.3 382.7 627.7 392.3 654.8 395.8C682 399.3 709 396.7 736.2 395.2C763.3 393.7 790.7 393.3 818 391C845.3 388.7 872.7 384.3 886.3 382.2L900 380L900 451L886.3 451C872.7 451 845.3 451 818 451C790.7 451 763.3 451 736.2 451C709 451 682 451 654.8 451C627.7 451 600.3 451 573 451C545.7 451 518.3 451 491 451C463.7 451 436.3 451 409 451C381.7 451 354.3 451 327 451C299.7 451 272.3 451 245.2 451C218 451 191 451 163.8 451C136.7 451 109.3 451 82 451C54.7 451 27.3 451 13.7 451L0 451Z" fill="#72e5c8" stroke-linecap="round" stroke-linejoin="miter"></path></svg>