<svg id="visual" viewBox="0 0 900 600" width="900" height="600" xmlns="http://www.w3.org/2000/svg" xmlns:xlink="http://www.w3.org/1999/xlink" version="1.1"><path d="M0 94L12.5 93.8C25 93.7 50 93.3 75 95.3C100 97.3 125 101.7 150 100.7C175 99.7 200 93.3 225 88.3C250 83.3 275 79.7 300 82.7C325 85.7 350 95.3 375 95.7C400 96 425 87 450 82.8C475 78.7 500 79.3 525 80C550 80.7 575 81.3 600 84C625 86.7 650 91.3 675 91.8C700 92.3 725 88.7 750 86.5C775 84.3 800 83.7 825 82.8C850 82 875 81 887.5 80.5L900 80L900 0L887.5 0C875 0 850 0 825 0C800 0 775 0 750 0C725 0 700 0 675 0C650 0 625 0 600 0C575 0 550 0 525 0C500 0 475 0 450 0C425 0 400 0 375 0C350 0 325 0 300 0C275 0 250 0 225 0C200 0 175 0 150 0C125 0 100 0 75 0C50 0 25 0 12.5 0L0 0Z" fill="#2ad8a4" stroke-linecap="round" stroke-linejoin="miter"></path></svg>